# xmcd
#
# Track frame offsets: 
#        150
#        12375
#        32102
#        42107
#        54310
#        65435
#        77885
#        89647
#        104337
#        115565
#        129282
#        142780
#
# Disc length: 2067 seconds
#
# Revision: 0
# Processed by: cddbd v1.5.1PL0 Copyright (c) Steve Scherf et al.
# Submitted via: ExactAudioCopy v0.95a3
#
DISCID=9408110c
DTITLE=Tom Astor - Die Stimme der Trucker
DYEAR=1987
DGENRE=Country
TTITLE0=Hallo, guten Morgen Deutschland
TTITLE1=Daddy, wenn ich groß bin fahr ich Diesel
TTITLE2=Ihr Leben, das ist ihr Laster
TTITLE3=Radwechsel
TTITLE4=Ist lange her
TTITLE5=Hier riecht's nach Freiheit 
TTITLE6=Ein unbekannter Stuntman
TTITLE7=Sie ist jung und ich ein Mann, der viel erlebt
TTITLE8=Ist das ein Leben! So hart und schön
TTITLE9=Sie ist wie ein neues Leben
TTITLE10=Alter Freund, überhol dich nicht selber
TTITLE11=Ich wünsch dir Hals und Beinbruch
EXTD=
EXTT0=
EXTT1=
EXTT2=
EXTT3=
EXTT4=
EXTT5=
EXTT6=
EXTT7=
EXTT8=
EXTT9=
EXTT10=
EXTT11=
PLAYORDER=
